<svg width="92" height="25" viewBox="0 0 92 25" fill="none" xmlns="http://www.w3.org/2000/svg">
<g clip-path="url(#clip0_2008_1006)">
<path d="M2.02183 4.11747V22.7119C2.02183 23.3665 2.45274 24.0192 3.27994 24.5087H0.33088C1.16 24.0192 1.58899 23.3646 1.58899 22.7119V3.43251C1.16 2.77791 0.463617 1.99429 0 1.63379H2.88173L15.8688 22.025V3.43251C15.8688 2.77791 15.4379 2.12521 14.6107 1.63569H17.5597C16.7306 2.12521 16.3016 2.77981 16.3016 3.43251V22.7119C16.7325 23.3665 17.4289 24.1501 17.8925 24.5087H15.0108L2.02183 4.11747Z" fill="#5E0303"/>
<path d="M25.4088 7.68077V22.7138C25.4088 23.3684 25.6069 24.152 25.8397 24.5106H22.8906C23.1234 24.152 23.3215 23.3665 23.3215 22.7138V10.6559C23.3215 10.0032 23.1234 9.21765 22.8906 8.85905L25.4088 7.68267V7.68077ZM24.3488 1.63379C25.0779 1.63379 25.5088 2.0588 25.5088 2.74566C25.5088 3.43251 25.0779 3.88979 24.3488 3.88979C23.6197 3.88979 23.2215 3.46477 23.2215 2.74566C23.2215 2.02655 23.6524 1.63379 24.3488 1.63379Z" fill="#5E0303"/>
<path d="M45.5873 22.7118C45.5873 23.7573 45.7854 24.1501 46.0182 24.5087H43.0691C43.3019 24.1501 43.5001 23.7573 43.5001 22.7118V13.7258C43.5001 10.2953 41.7437 8.82484 39.7238 8.82484C37.7039 8.82484 35.4493 10.3598 34.5221 12.9422V22.7137C34.5221 23.7592 34.7202 24.152 34.953 24.5106H32.0039C32.2367 24.152 32.4348 23.7592 32.4348 22.7137V10.6558C32.4348 9.61036 32.2367 9.2176 32.0039 8.859L34.5221 7.68262V12.3881C35.7148 9.31627 38.3329 7.68262 40.6837 7.68262C43.0345 7.68262 45.1237 9.2176 45.5219 12.4868C46.7473 9.34852 49.3328 7.68262 51.7182 7.68262C54.3017 7.68262 56.6218 9.61036 56.6218 13.6954V22.7156C56.6218 23.7611 56.8199 24.1539 57.0527 24.5125H54.1036C54.3364 24.1539 54.5345 23.7611 54.5345 22.7156V13.7296C54.5345 10.265 52.7455 8.82864 50.7236 8.82864C48.7018 8.82864 46.4491 10.3636 45.5546 12.946C45.5873 13.2078 45.5873 13.4355 45.5873 13.6973V22.7175V22.7118Z" fill="#5E0303"/>
<path d="M66.5574 22.7118C66.5574 23.3663 66.7555 24.15 66.9883 24.5086H64.0392C64.272 24.15 64.4701 23.3645 64.4701 22.7118V8.49651H61.6211V8.17016H64.4701V5.65422C64.4701 2.12508 66.6247 0 70.1355 0C70.6664 0 71.1954 0.0645112 71.7264 0.163175L71.4936 2.09092C70.1682 1.47048 68.81 0.85003 67.8482 0.85003C67.5827 0.85003 67.3519 0.914542 67.1518 1.01321C66.6882 1.27505 66.5554 1.76457 66.5554 3.13638V8.16826H71.359V8.49461H66.5554V22.7099L66.5574 22.7118Z" fill="#5E0303"/>
<path d="M91.9996 24.3132C91.536 24.6395 90.7742 25 90.0778 25C89.2487 25 88.5215 24.5428 88.5215 22.9736V21.4386C86.8325 23.9223 84.1489 25 81.7289 25C78.7471 25 76.1289 23.465 76.1289 20.915C76.1289 15.3917 84.5779 16.014 88.5196 14.0521C88.5196 9.90251 86.3997 8.00702 83.9469 8.00702C81.6615 8.00702 79.076 9.70708 77.7852 12.7789L76.1616 11.6026C78.0507 9.02022 81.0325 7.68066 83.8161 7.68066C87.3942 7.68066 90.6088 10.0012 90.6088 14.9021V23.2355C90.6088 24.0513 90.8742 24.3796 91.2378 24.3796C91.436 24.3796 91.6687 24.2809 91.8996 24.15L91.9996 24.3132ZM88.5215 14.2475C84.778 16.568 78.2508 16.3385 78.2508 20.9795C78.2508 23.0704 80.0398 24.4118 82.2271 24.4118C84.6452 24.4118 87.3288 23.0723 88.5215 20.915V14.2494V14.2475Z" fill="#5E0303"/>
</g>
<defs>
<clipPath id="clip0_2008_1006">
<rect width="92" height="25" fill="white"/>
</clipPath>
</defs>
</svg>
